<svg width="161" height="38" viewBox="0 0 161 38" fill="none" xmlns="http://www.w3.org/2000/svg">
<g filter="url(#filter0_dd_102_52420)">
<g clipPath="url(#clip0_102_52420)">
<rect x="3" y="2" width="32" height="32" rx="8" fill="white"/>
<rect x="3" y="2" width="32" height="32" rx="8" fill="url(#paint0_linear_102_52420)"/>
<path fill-rule="evenodd" clip-rule="evenodd" d="M19 4.03861C11.2895 4.03861 5.03885 10.2892 5.03885 17.9998C5.03885 25.7103 11.2895 31.9609 19 31.9609C26.7106 31.9609 32.9612 25.7103 32.9612 17.9998C32.9612 10.2892 26.7106 4.03861 19 4.03861ZM4.96118 17.9998C4.96118 10.2463 11.2466 3.96094 19 3.96094C26.7535 3.96094 33.0389 10.2463 33.0389 17.9998C33.0389 25.7532 26.7535 32.0386 19 32.0386C11.2466 32.0386 4.96118 25.7532 4.96118 17.9998Z" fill="#D0D5DD"/>
<path fill-rule="evenodd" clip-rule="evenodd" d="M19 14.0777C16.8338 14.0777 15.0777 15.8338 15.0777 18C15.0777 20.1662 16.8338 21.9223 19 21.9223C21.1662 21.9223 22.9223 20.1662 22.9223 18C22.9223 15.8338 21.1662 14.0777 19 14.0777ZM15 18C15 15.7909 16.7909 14 19 14C21.2091 14 23 15.7909 23 18C23 20.2091 21.2091 22 19 22C16.7909 22 15 20.2091 15 18Z" fill="#D0D5DD"/>
<path fill-rule="evenodd" clip-rule="evenodd" d="M19 15.3199C17.52 15.3199 16.3203 16.5196 16.3203 17.9995C16.3203 19.4794 17.52 20.6791 19 20.6791C20.4799 20.6791 21.6796 19.4794 21.6796 17.9995C21.6796 16.5196 20.4799 15.3199 19 15.3199ZM16.2427 17.9995C16.2427 16.4767 17.4772 15.2422 19 15.2422C20.5228 15.2422 21.7572 16.4767 21.7572 17.9995C21.7572 19.5223 20.5228 20.7568 19 20.7568C17.4772 20.7568 16.2427 19.5223 16.2427 17.9995Z" fill="#D0D5DD"/>
<path d="M18.9612 2H19.0389V34H18.9612V2Z" fill="#D0D5DD"/>
<path d="M35 17.9609L35 18.0386L3 18.0386L3 17.9609L35 17.9609Z" fill="#D0D5DD"/>
<path d="M29.6019 2H29.6796V34H29.6019V2Z" fill="#D0D5DD"/>
<path d="M13.6407 2H13.7184V34H13.6407V2Z" fill="#D0D5DD"/>
<path d="M24.2815 2H24.3592V34H24.2815V2Z" fill="#D0D5DD"/>
<path d="M8.32031 2H8.39798V34H8.32031V2Z" fill="#D0D5DD"/>
<path d="M35 28.6016L35 28.6792L3 28.6792L3 28.6016L35 28.6016Z" fill="#D0D5DD"/>
<path d="M35 12.6406L35 12.7183L3 12.7183L3 12.6406L35 12.6406Z" fill="#D0D5DD"/>
<path d="M35 23.2812L35 23.3589L3 23.3589L3 23.2812L35 23.2812Z" fill="#D0D5DD"/>
<path d="M35 7.32031L35 7.39798L3 7.39798L3 7.32031L35 7.32031Z" fill="#D0D5DD"/>
<g filter="url(#filter1_dd_102_52420)">
<circle cx="19" cy="18" r="8" fill="url(#paint1_linear_102_52420)"/>
</g>
<g filter="url(#filter2_b_102_52420)">
<path d="M3 18H35V21.2C35 25.6804 35 27.9206 34.1281 29.6319C33.3611 31.1372 32.1372 32.3611 30.6319 33.1281C28.9206 34 26.6804 34 22.2 34H15.8C11.3196 34 9.07937 34 7.36808 33.1281C5.86278 32.3611 4.63893 31.1372 3.87195 29.6319C3 27.9206 3 25.6804 3 21.2V18Z" fill="white" fill-opacity="0.2"/>
</g>
</g>
<rect x="3.15" y="2.15" width="31.7" height="31.7" rx="7.85" stroke="#D0D5DD" stroke-width="0.3"/>
</g>
<path d="M50.7824 22.6987H47.2523L44 10.2288H46.4678L49.0337 20.5741L51.3544 10.2288H54.3453L56.666 20.5904L59.2319 10.2288H61.6997L58.4311 22.6987H54.9173L52.8417 13.0398L50.7824 22.6987Z" fill="#101828"/>
<path d="M66.5584 22.8784C65.6322 22.8784 64.8151 22.6769 64.1069 22.2737C63.3987 21.8706 62.8484 21.3149 62.4562 20.6067C62.0749 19.8876 61.8842 19.0759 61.8842 18.1716C61.8842 17.3327 62.0531 16.5482 62.3908 15.8182C62.7395 15.0773 63.257 14.478 63.9434 14.0204C64.6407 13.5628 65.4906 13.334 66.493 13.334C67.321 13.334 68.0837 13.5083 68.781 13.857C69.4783 14.1948 70.0395 14.7232 70.4644 15.4423C70.8893 16.1505 71.1018 17.033 71.1018 18.0899V18.5638H64.1722C64.2049 18.9452 64.3193 19.3047 64.5155 19.6425C64.7334 20.0674 65.0221 20.3997 65.3816 20.6394C65.7521 20.8682 66.1716 20.9826 66.6401 20.9826C67.1413 20.9826 67.5716 20.8573 67.9312 20.6067C68.2907 20.3453 68.5468 20.0129 68.6993 19.6098H70.9547C70.6605 20.5795 70.143 21.3694 69.4021 21.9796C68.6612 22.5788 67.7133 22.8784 66.5584 22.8784ZM68.8464 16.9132C68.8028 16.5645 68.6884 16.2812 68.5032 16.0633C68.2962 15.7474 68.0238 15.5077 67.686 15.3442C67.3483 15.1699 66.9724 15.0827 66.5584 15.0827C66.1443 15.0827 65.7684 15.1645 65.4307 15.3279C65.1038 15.4913 64.8369 15.7365 64.6299 16.0633C64.4337 16.303 64.3139 16.5863 64.2703 16.9132H68.8464Z" fill="#101828"/>
<path d="M74.8059 22.6987C74.1086 22.6987 73.5802 22.5407 73.2206 22.2247C72.8611 21.8979 72.6813 21.3858 72.6813 20.6885V10.2288H74.8876V20.0347C74.8876 20.3398 74.9421 20.5577 75.0511 20.6885C75.1709 20.8083 75.367 20.8682 75.6394 20.8682H76.2278V22.6987H74.8059Z" fill="#101828"/>
<path d="M79.7376 22.6987C79.0403 22.6987 78.5119 22.5407 78.1523 22.2247C77.7928 21.8979 77.613 21.3858 77.613 20.6885V10.2288H79.8193V20.0347C79.8193 20.3398 79.8738 20.5577 79.9828 20.6885C80.1026 20.8083 80.2987 20.8682 80.5711 20.8682H81.1595V22.6987H79.7376Z" fill="#101828"/>
<path d="M87.3986 13.3504C88.194 13.3504 88.8968 13.5519 89.5069 13.9551C90.117 14.3582 90.591 14.9248 90.9288 15.6547C91.2665 16.3739 91.4354 17.1965 91.4354 18.1226C91.4354 19.0487 91.2665 19.8767 90.9288 20.6067C90.591 21.3258 90.117 21.887 89.5069 22.2901C88.8968 22.6932 88.194 22.8948 87.3986 22.8948C86.8321 22.8948 86.3418 22.7967 85.9277 22.6006C85.5246 22.3936 85.1487 22.0395 84.8001 21.5383V26H82.5937V13.5301H84.8001V14.6905C85.1596 14.1893 85.5409 13.8407 85.9441 13.6445C86.3472 13.4484 86.8321 13.3504 87.3986 13.3504ZM86.892 15.2462C86.1947 15.2462 85.6227 15.5131 85.1759 16.047C84.7401 16.5809 84.5222 17.2727 84.5222 18.1226C84.5222 18.9724 84.7401 19.6643 85.1759 20.1982C85.6227 20.732 86.1947 20.999 86.892 20.999C87.5893 20.999 88.1504 20.732 88.5753 20.1982C89.0003 19.6534 89.2127 18.9615 89.2127 18.1226C89.2127 17.2836 89.0003 16.5972 88.5753 16.0633C88.1504 15.5186 87.5893 15.2462 86.892 15.2462Z" fill="#101828"/>
<path d="M93.0792 22.6987V13.5301H95.2855V14.6251C95.6233 14.1566 95.9992 13.8243 96.4132 13.6282C96.8381 13.4321 97.3338 13.334 97.9004 13.334H98.1619V15.4586H97.6553C96.958 15.4586 96.4132 15.6439 96.0209 16.0143C95.7703 16.2649 95.5851 16.5863 95.4653 16.9785C95.3454 17.3599 95.2855 17.8502 95.2855 18.4494V22.6987H93.0792Z" fill="#101828"/>
<path d="M103.65 22.8784C102.735 22.8784 101.923 22.6769 101.215 22.2737C100.507 21.8706 99.9511 21.3041 99.548 20.5741C99.1558 19.8441 98.9597 19.0051 98.9597 18.0572C98.9597 17.142 99.1558 16.3248 99.548 15.6057C99.9511 14.8866 100.507 14.3309 101.215 13.9387C101.923 13.5356 102.735 13.334 103.65 13.334C104.565 13.334 105.377 13.5356 106.085 13.9387C106.804 14.3418 107.36 14.903 107.752 15.6221C108.155 16.3303 108.357 17.142 108.357 18.0572C108.357 19.0051 108.161 19.8441 107.769 20.5741C107.376 21.3041 106.821 21.8706 106.102 22.2737C105.393 22.6769 104.576 22.8784 103.65 22.8784ZM103.65 20.9826C104.369 20.9826 104.952 20.7102 105.399 20.1655C105.846 19.6207 106.069 18.9179 106.069 18.0572C106.069 17.2291 105.846 16.5536 105.399 16.0306C104.952 15.4968 104.369 15.2298 103.65 15.2298C103.182 15.2298 102.762 15.3497 102.392 15.5894C102.021 15.8291 101.733 16.1668 101.526 16.6027C101.319 17.0276 101.215 17.5124 101.215 18.0572C101.215 18.9288 101.438 19.637 101.885 20.1818C102.343 20.7157 102.931 20.9826 103.65 20.9826Z" fill="#101828"/>
<path d="M114.818 22.8784C114.252 22.8784 113.767 22.7804 113.364 22.5843C112.961 22.3882 112.579 22.0395 112.22 21.5383V22.6987H110.013V10.2288H112.22V14.6905C112.568 14.1893 112.944 13.8407 113.347 13.6445C113.761 13.4375 114.252 13.334 114.818 13.334C115.614 13.334 116.316 13.5356 116.926 13.9387C117.537 14.3418 118.011 14.9084 118.348 15.6384C118.686 16.3575 118.855 17.1801 118.855 18.1062C118.855 19.0323 118.686 19.8604 118.348 20.5904C118.011 21.3095 117.537 21.8706 116.926 22.2737C116.316 22.6769 115.614 22.8784 114.818 22.8784ZM114.312 20.9826C115.009 20.9826 115.57 20.7157 115.995 20.1818C116.42 19.637 116.632 18.9452 116.632 18.1062C116.632 17.2673 116.42 16.5809 115.995 16.047C115.57 15.5022 115.009 15.2298 114.312 15.2298C113.614 15.2298 113.042 15.4968 112.596 16.0306C112.16 16.5645 111.942 17.2564 111.942 18.1062C111.942 18.9561 112.16 19.6479 112.596 20.1818C113.042 20.7157 113.614 20.9826 114.312 20.9826Z" fill="#101828"/>
<path d="M124.797 22.8784C123.871 22.8784 123.054 22.6769 122.346 22.2737C121.637 21.8706 121.087 21.3149 120.695 20.6067C120.314 19.8876 120.123 19.0759 120.123 18.1716C120.123 17.3327 120.292 16.5482 120.629 15.8182C120.978 15.0773 121.496 14.478 122.182 14.0204C122.879 13.5628 123.729 13.334 124.732 13.334C125.56 13.334 126.322 13.5083 127.02 13.857C127.717 14.1948 128.278 14.7232 128.703 15.4423C129.128 16.1505 129.34 17.033 129.34 18.0899V18.5638H122.411C122.444 18.9452 122.558 19.3047 122.754 19.6425C122.972 20.0674 123.261 20.3997 123.62 20.6394C123.991 20.8682 124.41 20.9826 124.879 20.9826C125.38 20.9826 125.81 20.8573 126.17 20.6067C126.529 20.3453 126.785 20.0129 126.938 19.6098H129.193C128.899 20.5795 128.382 21.3694 127.641 21.9796C126.9 22.5788 125.952 22.8784 124.797 22.8784ZM127.085 16.9132C127.041 16.5645 126.927 16.2812 126.742 16.0633C126.535 15.7474 126.262 15.5077 125.925 15.3442C125.587 15.1699 125.211 15.0827 124.797 15.0827C124.383 15.0827 124.007 15.1645 123.669 15.3279C123.342 15.4913 123.076 15.7365 122.868 16.0633C122.672 16.303 122.553 16.5863 122.509 16.9132H127.085Z" fill="#101828"/>
<path d="M135.251 22.9275C134.336 22.9275 133.529 22.7586 132.832 22.4208C132.135 22.0831 131.585 21.6037 131.181 20.9826C130.778 20.3507 130.555 19.6098 130.511 18.76H132.865C133.017 20.1982 133.829 20.9173 135.3 20.9173C135.965 20.9173 136.477 20.7429 136.836 20.3943C137.207 20.0456 137.392 19.5662 137.392 18.9561C137.392 18.335 137.174 17.872 136.738 17.5669C136.313 17.2618 135.709 17.1093 134.924 17.1093H134.156V15.1971H134.842C135.387 15.1971 135.839 15.0555 136.199 14.7722C136.558 14.478 136.738 14.0749 136.738 13.5628C136.738 13.0834 136.591 12.7075 136.297 12.4351C136.003 12.1628 135.589 12.0266 135.055 12.0266C134.521 12.0266 134.085 12.1791 133.747 12.4842C133.41 12.7783 133.197 13.236 133.11 13.857H130.969C131.002 13.0943 131.198 12.4242 131.557 11.8468C131.917 11.2584 132.402 10.8063 133.012 10.4903C133.622 10.1743 134.308 10.0163 135.071 10.0163C135.845 10.0163 136.526 10.1634 137.114 10.4576C137.713 10.7518 138.176 11.1549 138.503 11.667C138.841 12.1791 139.01 12.7566 139.01 13.3994C139.01 14.0204 138.836 14.5652 138.487 15.0337C138.149 15.5022 137.702 15.7964 137.147 15.9162C137.964 16.0143 138.601 16.3521 139.059 16.9295C139.527 17.4961 139.762 18.1825 139.762 18.9888C139.762 19.7514 139.571 20.4324 139.19 21.0317C138.808 21.6309 138.274 22.0994 137.588 22.4372C136.912 22.764 136.133 22.9275 135.251 22.9275Z" fill="#101828"/>
<path d="M145.836 22.9275C144.332 22.9275 143.172 22.399 142.354 21.3422C141.537 20.2744 141.129 18.76 141.129 16.7988C141.129 14.6633 141.537 12.9963 142.354 11.7978C143.183 10.5993 144.365 10 145.901 10C147.099 10 148.069 10.3323 148.81 10.9969C149.551 11.6507 149.998 12.555 150.15 13.7099H148.026C147.906 13.1542 147.661 12.7348 147.29 12.4515C146.931 12.1682 146.467 12.0266 145.901 12.0266C144.19 12.0266 143.335 13.285 143.335 15.8018C143.989 14.8975 144.926 14.4454 146.146 14.4454C146.931 14.4454 147.622 14.6142 148.222 14.952C148.821 15.2789 149.289 15.7528 149.627 16.3739C149.965 16.984 150.134 17.7031 150.134 18.5312C150.134 19.381 149.949 20.1437 149.578 20.8192C149.219 21.4838 148.712 22.0014 148.058 22.3718C147.404 22.7423 146.664 22.9275 145.836 22.9275ZM145.803 20.9173C146.424 20.9173 146.909 20.6994 147.257 20.2635C147.606 19.8168 147.78 19.2503 147.78 18.5638C147.78 17.8774 147.606 17.3272 147.257 16.9132C146.909 16.4991 146.424 16.2921 145.803 16.2921C145.149 16.2921 144.621 16.5046 144.218 16.9295C143.825 17.3435 143.629 17.8883 143.629 18.5638C143.629 19.2612 143.825 19.8277 144.218 20.2635C144.621 20.6994 145.149 20.9173 145.803 20.9173Z" fill="#101828"/>
<path d="M156.126 22.9275C153.075 22.9275 151.55 20.7593 151.55 16.4229C151.55 14.2111 151.942 12.5877 152.727 11.5526C153.511 10.5175 154.628 10 156.077 10C159.117 10 160.637 12.1682 160.637 16.5046C160.637 20.7865 159.133 22.9275 156.126 22.9275ZM156.077 20.8192C156.785 20.8192 157.33 20.4923 157.711 19.8386C158.093 19.1849 158.283 18.0626 158.283 16.4719C158.283 14.8812 158.087 13.7589 157.695 13.1052C157.303 12.4515 156.753 12.1246 156.044 12.1246C155.336 12.1246 154.802 12.4515 154.443 13.1052C154.083 13.748 153.903 14.8648 153.903 16.4556C153.903 18.0572 154.089 19.1849 154.459 19.8386C154.829 20.4923 155.369 20.8192 156.077 20.8192Z" fill="#101828"/>
<defs>
<filter id="filter0_dd_102_52420" x="0" y="0" width="38" height="38" filterUnits="userSpaceOnUse" color-interpolation-filters="sRGB">
<feFlood flood-opacity="0" result="BackgroundImageFix"/>
<feColorMatrix in="SourceAlpha" type="matrix" values="0 0 0 0 0 0 0 0 0 0 0 0 0 0 0 0 0 0 127 0" result="hardAlpha"/>
<feOffset dy="1"/>
<feGaussianBlur stdDeviation="1"/>
<feColorMatrix type="matrix" values="0 0 0 0 0.0627451 0 0 0 0 0.0941176 0 0 0 0 0.156863 0 0 0 0.06 0"/>
<feBlend mode="normal" in2="BackgroundImageFix" result="effect1_dropShadow_102_52420"/>
<feColorMatrix in="SourceAlpha" type="matrix" values="0 0 0 0 0 0 0 0 0 0 0 0 0 0 0 0 0 0 127 0" result="hardAlpha"/>
<feOffset dy="1"/>
<feGaussianBlur stdDeviation="1.5"/>
<feColorMatrix type="matrix" values="0 0 0 0 0.0627451 0 0 0 0 0.0941176 0 0 0 0 0.156863 0 0 0 0.1 0"/>
<feBlend mode="normal" in2="effect1_dropShadow_102_52420" result="effect2_dropShadow_102_52420"/>
<feBlend mode="normal" in="SourceGraphic" in2="effect2_dropShadow_102_52420" result="shape"/>
</filter>
<filter id="filter1_dd_102_52420" x="8" y="8" width="22" height="22" filterUnits="userSpaceOnUse" color-interpolation-filters="sRGB">
<feFlood flood-opacity="0" result="BackgroundImageFix"/>
<feColorMatrix in="SourceAlpha" type="matrix" values="0 0 0 0 0 0 0 0 0 0 0 0 0 0 0 0 0 0 127 0" result="hardAlpha"/>
<feOffset dy="1"/>
<feGaussianBlur stdDeviation="1"/>
<feColorMatrix type="matrix" values="0 0 0 0 0.0627451 0 0 0 0 0.0941176 0 0 0 0 0.156863 0 0 0 0.06 0"/>
<feBlend mode="normal" in2="BackgroundImageFix" result="effect1_dropShadow_102_52420"/>
<feColorMatrix in="SourceAlpha" type="matrix" values="0 0 0 0 0 0 0 0 0 0 0 0 0 0 0 0 0 0 127 0" result="hardAlpha"/>
<feOffset dy="1"/>
<feGaussianBlur stdDeviation="1.5"/>
<feColorMatrix type="matrix" values="0 0 0 0 0.0627451 0 0 0 0 0.0941176 0 0 0 0 0.156863 0 0 0 0.1 0"/>
<feBlend mode="normal" in2="effect1_dropShadow_102_52420" result="effect2_dropShadow_102_52420"/>
<feBlend mode="normal" in="SourceGraphic" in2="effect2_dropShadow_102_52420" result="shape"/>
</filter>
<filter id="filter2_b_102_52420" x="-2" y="13" width="42" height="26" filterUnits="userSpaceOnUse" color-interpolation-filters="sRGB">
<feFlood flood-opacity="0" result="BackgroundImageFix"/>
<feGaussianBlur in="BackgroundImageFix" stdDeviation="2.5"/>
<feComposite in2="SourceAlpha" operator="in" result="effect1_backgroundBlur_102_52420"/>
<feBlend mode="normal" in="SourceGraphic" in2="effect1_backgroundBlur_102_52420" result="shape"/>
</filter>
<linearGradient id="paint0_linear_102_52420" x1="19" y1="2" x2="19" y2="34" gradientUnits="userSpaceOnUse">
<stop stop-color="white"/>
<stop offset="1" stop-color="#D0D5DD"/>
</linearGradient>
<linearGradient id="paint1_linear_102_52420" x1="15" y1="26" x2="23" y2="10" gradientUnits="userSpaceOnUse">
<stop stop-color="#1F6DE2"/>
<stop offset="1" stop-color="#428CFB"/>
</linearGradient>
<clipPath id="clip0_102_52420">
<rect x="3" y="2" width="32" height="32" rx="8" fill="white"/>
</clipPath>
</defs>
</svg>
